inDegrees=no
num_controls=7
num_derivatives=13
num_iterations=25
num_multipliers=7
num_parameters=0
num_slacks=7
num_states=26
objective=0.474456
objective_accelerations=0.001826
objective_balance=0.012394
objective_effort=0.014664
objective_height=0.444096
objective_ligament=0.001475
solver_duration=340.018634
status=Solve_Succeeded
success=true
DataType=double
version=3
OpenSimVersion=4.5
endheader
time	/jointset/ground_pelvis/pelvis_tilt/value	/jointset/ground_pelvis/pelvis_tx/value	/jointset/ground_pelvis/pelvis_ty/value	/jointset/hip_l/hip_flexion_l/value	/jointset/hip_l/hip_adduction_l/value	/jointset/hip_l/hip_rotation_l/value	/jointset/back/lumbar_extension/value	/jointset/patellofemoral_l/patellar_flexion_l/value	/jointset/knee_l/knee_flexion_l/value	/jointset/knee_l/knee_adduction_l/value	/jointset/knee_l/knee_rotation_l/value	/jointset/ankle_l/ankle_angle_l/value	/jointset/subtalar_l/subtalar_angle_l/value	/jointset/ground_pelvis/pelvis_tilt/speed	/jointset/ground_pelvis/pelvis_tx/speed	/jointset/ground_pelvis/pelvis_ty/speed	/jointset/hip_l/hip_flexion_l/speed	/jointset/hip_l/hip_adduction_l/speed	/jointset/hip_l/hip_rotation_l/speed	/jointset/back/lumbar_extension/speed	/jointset/patellofemoral_l/patellar_flexion_l/speed	/jointset/knee_l/knee_flexion_l/speed	/jointset/knee_l/knee_adduction_l/speed	/jointset/knee_l/knee_rotation_l/speed	/jointset/ankle_l/ankle_angle_l/speed	/jointset/subtalar_l/subtalar_angle_l/speed	/forceset/tau_hip_flexion_l	/forceset/tau_hip_adduction_l	/forceset/tau_hip_rotation_l	/forceset/tau_knee_flexion_l	/forceset/tau_ankle_angle_l	/forceset/tau_subtalar_angle_l	/forceset/tau_lumbar_extension	lambda_cid13_p0	lambda_cid13_p1	lambda_cid13_p2	lambda_cid13_p3	lambda_cid13_p4	lambda_cid13_p5	lambda_cid14_p0	/jointset/ground_pelvis/pelvis_tilt/accel	/jointset/ground_pelvis/pelvis_tx/accel	/jointset/ground_pelvis/pelvis_ty/accel	/jointset/hip_l/hip_flexion_l/accel	/jointset/hip_l/hip_adduction_l/accel	/jointset/hip_l/hip_rotation_l/accel	/jointset/back/lumbar_extension/accel	/jointset/patellofemoral_l/patellar_flexion_l/accel	/jointset/knee_l/knee_flexion_l/accel	/jointset/knee_l/knee_adduction_l/accel	/jointset/knee_l/knee_rotation_l/accel	/jointset/ankle_l/ankle_angle_l/accel	/jointset/subtalar_l/subtalar_angle_l/accel	gamma_cid13_p0	gamma_cid13_p1	gamma_cid13_p2	gamma_cid13_p3	gamma_cid13_p4	gamma_cid13_p5	gamma_cid14_p0
0.5	-0.1189826964813552	0.0393975039367252	0.9042335160003715	0.3805259677417929	-0.1359641983296789	-0.09788070184616672	-0.02220112468921211	0.03403143292205776	0.03403143292202895	0.08364142137066453	-0.01536843732835181	-0.03766297319801564	0.1120453637388585	-0.01337505951485961	0.006023966745350705	-0.000748595382712657	0.01063714202342218	0.0008041899703318565	0.003550084545189509	-0.02797276962092992	0.006946061822605275	0.006946061822604066	0.002768423410111894	-0.003521445455808854	0.009978580653771715	0.003905094911743759	0.03598295430180518	0.06259977914718547	0.01569524287123392	-0.1912195144323346	0.2284372112531788	-0.05007999864430313	0.01143656506093747	27.99830199648133	23.18427352865361	-11.33681025166531	1.498269032186916	-629.5352799554959	-13.12105277967363	-34.41400204010235	0.02089275918235889	-0.02259107016944685	-0.001685760501115718	0.01230599392534868	-0.0002268950154562849	0.002000464046098899	-0.004136431031000317	0.01131924665086706	0.0113192466508669	3.282175849468648e-05	0.002149526646165903	-0.02249664051145072	-0.007316869375594837	-1.707494311088104e-12	-5.061569457336319e-11	1.680312161063599e-11	-9.031527159683376e-12	-1.454988760656909e-11	-3.441453605262975e-11	-4.02360894450163e-12
0.51	-0.1191153880119743	0.03945661076004692	0.9042259473898231	0.3806329347959186	-0.1359561710221379	-0.09784511072442859	-0.02248104976884123	0.03410144446042126	0.03410144446038132	0.08366909846622712	-0.01540353540670842	-0.03756432234109496	0.1120840424793577	-0.01316238590006747	0.00579698947433393	-0.0007650709537673487	0.01075553532905743	0.0008009931265961585	0.003567781233074007	-0.02801070465985791	0.007055684847095482	0.007055684847094804	0.002766346229097311	-0.003497774771010692	0.009750850496146648	0.003830139799497952	0.03576818818147572	0.06268127109048172	0.01566984937238078	-0.1909455110198851	0.228063442133255	-0.05007033996779497	0.01160877901285093	27.88028135168188	23.18745258334174	-11.32213585601842	1.528285140639569	-629.5353703182627	-13.09585691607961	-34.41590817186481	0.02158376669955781	-0.02281232340132799	-0.001620093809339947	0.01149597587946642	-0.0004078385436900444	0.001600480512916426	-0.003390794168649164	0.01069968040785661	0.01069968040784033	-0.0004254147765010731	0.002535151206946424	-0.02302223851454421	-0.007661834169292644	-3.489081335904679e-12	-5.149879113900562e-11	1.896358940582518e-11	-6.889487621844987e-12	-1.609065402818431e-11	-3.46997053541397e-11	-4.516063607988183e-12
0.52	-0.1192459269856277	0.03951343555709118	0.9042182156958838	0.3807410637785321	-0.1359481840348926	-0.09780935339395187	-0.02276130794962118	0.03417253539903542	0.03417253539900694	0.08369673530461602	-0.01543838491589231	-0.03746797099278035	0.1121219562683276	-0.01294454812240155	0.005567561489863388	-0.0007812120608772881	0.01086952771456236	0.0007961259031832776	0.003583326295087757	-0.02803938985257473	0.007161941873986335	0.007161941873986191	0.002760371978304996	-0.003471731613781753	0.009518678933469632	0.003752104606451131	0.03555342206139879	0.06276276303383613	0.01564445587320394	-0.1906715076073687	0.2276896730133652	-0.0500606812912132	0.01178099296495638	27.76230445664542	23.19057149133823	-11.30739191925833	1.559460935018817	-629.5341567197966	-13.07064728419886	-34.41785179071792	0.02192559175669563	-0.02308121285978371	-0.001618867712144322	0.01142580989914273	-0.000560970951019847	0.001570138871880165	-0.002286461788940325	0.01064604713088252	0.01064604713088235	-0.0007465921973027869	0.002624021132350037	-0.02338492152139555	-0.007932885535783946	-1.011293802437982e-11	-4.678372254745987e-11	1.879270275812043e-11	2.514613067563074e-12	-3.748728635974485e-12	-2.36062316122285e-11	-6.281179008210002e-12
0.53	-0.1193742637932806	0.03956795530716378	0.9042103242583316	0.3808503110119565	-0.1359402549847282	-0.09777345225918312	-0.02304180807245392	0.03424467215133496	0.03424467215129211	0.08372429112641862	-0.0154729612170102	-0.03737396179976036	0.1121590739520851	-0.01272213850818197	0.005336130864020631	-0.0007970159375402838	0.0109791752359298	0.000789364478712456	0.003596525258862297	-0.02805923485543817	0.00726481641972529	0.007264816419725079	0.002750063143406768	-0.003443129593098099	0.009282582984915874	0.003670928881648149	0.03535108335064317	0.06284072779965399	0.01562171946431989	-0.1904235381521641	0.2273545110682503	-0.05005249843167861	0.01194508957959059	27.65655187418933	23.19387631965236	-11.29460271157251	1.582028766852176	-629.5349943090522	-13.04579496453756	-34.41983202734427	0.02249987943311282	-0.02321263392647444	-0.001552220240863587	0.01062266105844632	-0.0007816719233620668	0.001138460003762109	-0.0016235415121382	0.01001933437958463	0.01001933437941159	-0.00128242098238561	0.003038140807303188	-0.02380843685076102	-0.008285400305588058	-1.085924674768997e-11	-5.104427400915736e-11	1.997758105687052e-11	2.172398209536098e-12	-1.054378559322304e-11	-2.72838087397977e-11	-6.689568617956285e-12
